<svg xmlns="http://www.w3.org/2000/svg" viewBox="0 0 138 139"><style>.st0{fill-rule:evenodd;clip-rule:evenodd;fill:#FFFFFF;}</style><path d="M69 13.9c-30.7 0-55.6 24.9-55.6 55.6s24.9 55.6 55.6 55.6 55.6-24.9 55.6-55.6S99.7 13.9 69 13.9zm31.9 86.6c-1.6 1.1-3.1 2.2-4.3 3.4-1.3 1.2-2.3 2.4-3.2 3.7-.9 1.3-1.7 2.5-2.3 3.7-4.5-6.7-10.6-11.2-18.2-13.6 1.8-.8 2.7-1.9 2.7-3.3 0-.4-.1-.8-.2-1.3-.1-.4-.5-1.3-1.1-2.5-.6-1.2-1.5-3.1-2.8-5.5-1.2-2.4-2.9-5.8-5.2-10.2h-1.5v15.4c0 4.3 1.1 6.7 3.4 7.4-2.9.9-5.3 1.9-7.3 3s-3.6 2.2-4.9 3.4c-1.3 1.2-2.3 2.4-3.1 3.7-.8 1.3-1.4 2.5-1.8 3.7-.5-1.2-1.2-2.5-2-3.9s-1.7-2.8-2.9-4.1c-1.2-1.3-2.6-2.4-4.3-3.4-1.7-1-3.8-1.7-6.2-2.2 2.3-.7 4.3-1.8 5.9-3.4 1.6-1.5 2.4-3 2.4-4.4V47.3c0-2.2-2.3-4.3-7-6.2 2.4-.7 4.5-1.6 6.3-2.9 1.8-1.2 3.3-2.5 4.5-3.9 1.3-1.3 2.3-2.7 3.2-3.9.9-1.3 1.6-2.4 2.2-3.3.5 1.2 1.1 2.4 1.6 3.7.5 1.2 1.3 2.4 2.4 3.6 1 1.2 2.4 2.3 4.2 3.4 1.8 1.1 4.2 2.2 7.3 3.3-2.5 1.5-3.8 3.4-3.8 5.8V62h1.5l8.1-15.2c.4-.6.6-1.1.7-1.6.1-.4.1-.9.1-1.3 0-1.4-.6-2.4-1.9-2.9 2.7-1.1 4.9-2.2 6.7-3.5 1.8-1.3 3.3-2.6 4.4-3.8 1.2-1.3 2.1-2.5 2.8-3.7.7-1.2 1.3-2.2 1.9-2.9.4 1.3.8 2.8 1.4 4.4.6 1.6 1.3 3.2 2.3 4.7s2.1 2.9 3.4 4 3.1 2 5.1 2.4c-3.7 1-6.4 2.7-8.2 5.2L80.3 66.3l15.8 25.3c1.7 2.7 5.2 4.8 10.4 6-2.1.9-3.9 1.8-5.6 2.9zM69 .5C30.9.5 0 31.4 0 69.5s30.9 69 69 69 69-30.9 69-69-30.9-69-69-69zm0 130.3c-33.9 0-61.3-27.5-61.3-61.3S35.1 8.2 69 8.2s61.3 27.5 61.3 61.3-27.4 61.3-61.3 61.3z" class="st0"/></svg>