<?xml version="1.0" encoding="utf-8"?>
<!-- Generator: Adobe Illustrator 21.0.2, SVG Export Plug-In . SVG Version: 6.00 Build 0)  -->
<svg version="1.1" id="Логотип_1_" xmlns="http://www.w3.org/2000/svg" xmlns:xlink="http://www.w3.org/1999/xlink" x="0px"
	 y="0px" viewBox="0 0 138 139" style="enable-background:new 0 0 138 139;" xml:space="preserve">
<style type="text/css">
	.st0{fill-rule:evenodd;clip-rule:evenodd;fill:#FFFFFF;}
</style>
<g id="Логотип">
	<g>
		<path class="st0" d="M69,13.9c-30.7,0-55.6,24.9-55.6,55.6s24.9,55.6,55.6,55.6s55.6-24.9,55.6-55.6S99.7,13.9,69,13.9z
			 M100.9,100.5c-1.6,1.1-3.1,2.2-4.3,3.4c-1.3,1.2-2.3,2.4-3.2,3.7c-0.9,1.3-1.7,2.5-2.3,3.7c-4.5-6.7-10.6-11.2-18.2-13.6
			c1.8-0.8,2.7-1.9,2.7-3.3c0-0.4-0.1-0.8-0.2-1.3c-0.1-0.4-0.5-1.3-1.1-2.5c-0.6-1.2-1.5-3.1-2.8-5.5c-1.2-2.4-2.9-5.8-5.2-10.2
			h-1.5v15.4c0,4.3,1.1,6.7,3.4,7.4c-2.9,0.9-5.3,1.9-7.3,3c-2,1.1-3.6,2.2-4.9,3.4c-1.3,1.2-2.3,2.4-3.1,3.7
			c-0.8,1.3-1.4,2.5-1.8,3.7c-0.5-1.2-1.2-2.5-2-3.9c-0.8-1.4-1.7-2.8-2.9-4.1c-1.2-1.3-2.6-2.4-4.3-3.4c-1.7-1-3.8-1.7-6.2-2.2
			c2.3-0.7,4.3-1.8,5.9-3.4c1.6-1.5,2.4-3,2.4-4.4V47.3c0-2.2-2.3-4.3-7-6.2c2.4-0.7,4.5-1.6,6.3-2.9c1.8-1.2,3.3-2.5,4.5-3.9
			c1.3-1.3,2.3-2.7,3.2-3.9c0.9-1.3,1.6-2.4,2.2-3.3c0.5,1.2,1.1,2.4,1.6,3.7c0.5,1.2,1.3,2.4,2.4,3.6c1,1.2,2.4,2.3,4.2,3.4
			c1.8,1.1,4.2,2.2,7.3,3.3c-2.5,1.5-3.8,3.4-3.8,5.8V62h1.5l8.1-15.2c0.4-0.6,0.6-1.1,0.7-1.6c0.1-0.4,0.1-0.9,0.1-1.3
			c0-1.4-0.6-2.4-1.9-2.9c2.7-1.1,4.9-2.2,6.7-3.5c1.8-1.3,3.3-2.6,4.4-3.8c1.2-1.3,2.1-2.5,2.8-3.7c0.7-1.2,1.3-2.2,1.9-2.9
			c0.4,1.3,0.8,2.8,1.4,4.4c0.6,1.6,1.3,3.2,2.3,4.7s2.1,2.9,3.4,4s3.1,2,5.1,2.4c-3.7,1-6.4,2.7-8.2,5.2L80.3,66.3l15.8,25.3
			c1.7,2.7,5.2,4.8,10.4,6C104.4,98.5,102.6,99.4,100.9,100.5z M69,0.5c-38.1,0-69,30.9-69,69s30.9,69,69,69s69-30.9,69-69
			S107.1,0.5,69,0.5z M69,130.8c-33.9,0-61.3-27.5-61.3-61.3S35.1,8.2,69,8.2s61.3,27.5,61.3,61.3S102.9,130.8,69,130.8z"/>
	</g>
</g>
</svg>
