<svg xmlns="http://www.w3.org/2000/svg" id="Заливка_цветом_4_1_" viewBox="0 0 28 29"><style>.st0{fill-rule:evenodd;clip-rule:evenodd;fill:#FFFFFF;}</style><path d="M27.8 23.2c-.1-.1-.2-.2-.2-.4-.3-.2-.7-.1-1.1-.1-.2.2-.5.3-.7.6h-.1c0 .2-.1.5-.1.7h-.1v1h-.1v.1h-.6c-.1-.2-.2-.4-.4-.6h-.1c-.3-.4-.1-.4-.7-.5-.8.9-.9-.4-1.8-.1v.1c-.2 0-.4.1-.6.1v.1c-.1 0-.2.1-.4.1-.2-.2-.3-.4-.5-.6h-.1c0-.2-.1-.3-.1-.5-.1 0-.2-.1-.2-.1v-1.4c.2-.2.5-.6.6-.9-.7-.4-1-.7-2.1-.7-.2.2-.4.5-.6.7h-.1v.2h-.1v.2h-.1v.1h-.1v.1h-2.7v-.1h-1.2v.1h-2.7v-.1h-.1v-.1h-.1V21h-.1v-.2h-.1c-.2-.2-.4-.5-.6-.7-1.1 0-1.4.3-2.1.7.1.3.4.8.6.9v1.4c-.1 0-.2.1-.2.1 0 .2-.1.3-.1.5h-.4c-.2.2-.3.4-.5.6-.1 0-.2-.1-.4-.1v-.1c-.2 0-.4-.1-.6-.1-.9-.3-1 1-1.8.1-.7.1-.4.1-.7.5-.1.2-.2.4-.4.6h-.5V25h-.1v-1h-.2c0-.2-.1-.5-.1-.7h-.1c-.2-.3-.5-.4-.7-.6-.4 0-.8 0-1.1.1-.1.1-.2.2-.2.4-.1 0-.1 0-.2.1v6.4h28v-6.4c0-.1-.1-.1-.2-.1zM7.7 14.5h.1v.3c.2.2.4.3.7.5v.3h.1c0 .1.1.3.1.4h.7c0 .2.1.4.1.6.1 0 .2.1.3.1l.3 1.2c.5.4 1 .9 1.4 1.3.4.4.6.8 1.2 1 .4.1 2.2 0 2.3-.1h.5V20c.2-.1.3-.3.5-.4v-.3c.6-.5 1.1-1 1.7-1.5.2-.2.5-1.2.5-1.5.6-.1.7-.3 1-.5 0-.1.1-.2.1-.3-.1-.1-.2 0-.1-.3.1-.1.3-.2.4-.3v-.6h.1V14h.1v-.4h.2c.4-1.1-.6-1.6-.3-2.7h.1v-.4h.2V7.3h-.1v-.4h-.1v-.5c-.1 0-.2-.1-.3-.1v-.4c-.1 0-.2-.1-.3-.1v-.3c-.1-.1-.3-.2-.4-.3V5h-.1c-.1-.1-.2-.3-.3-.4h-.3v-.1H18v-.2h-.3v-.1h-.3c0-.1-.1-.2-.1-.3H17v-.1c-.2 0-.3-.1-.5-.1v-.1h-.8c-.4-.1-2.2-.3-2.9-.1v.1H12c0 .1-.1.2-.1.3h-.8V4c-.2 0-.3.1-.5.1 0 .1-.1.2-.1.3-.2.1-.3.3-.5.4 0 .1-.1.2-.1.3h-.5c-.1.1-.3.2-.4.4h-.1v.3c-.3.1-.5.3-.7.5-.1.4-.2.8-.2 1.2h.1v.1H8c0 .2-.1.3-.1.5h-.2c-.2.7.1 2.4.1 2.9 0 .8-.1 1.2-.3 1.7.1.6.1 1.2.2 1.8z" class="st0"/></svg>