<?xml version="1.0" encoding="utf-8"?>
<!-- Generator: Adobe Illustrator 21.0.2, SVG Export Plug-In . SVG Version: 6.00 Build 0)  -->
<svg version="1.1" id="Заливка_цветом_4_1_"
	 xmlns="http://www.w3.org/2000/svg" xmlns:xlink="http://www.w3.org/1999/xlink" x="0px" y="0px" viewBox="0 0 28 29"
	 style="enable-background:new 0 0 28 29;" xml:space="preserve">
<style type="text/css">
	.st0{fill-rule:evenodd;clip-rule:evenodd;fill:#FFFFFF;}
</style>
<path class="st0" d="M27.8,23.2c-0.1-0.1-0.2-0.2-0.2-0.4c-0.3-0.2-0.7-0.1-1.1-0.1c-0.2,0.2-0.5,0.3-0.7,0.6h-0.1
	c0,0.2-0.1,0.5-0.1,0.7h-0.1V25h-0.1v0.1h-0.6c-0.1-0.2-0.2-0.4-0.4-0.6h-0.1c-0.3-0.4-0.1-0.4-0.7-0.5c-0.8,0.9-0.9-0.4-1.8-0.1
	v0.1c-0.2,0-0.4,0.1-0.6,0.1v0.1c-0.1,0-0.2,0.1-0.4,0.1c-0.2-0.2-0.3-0.4-0.5-0.6h-0.1c0-0.2-0.1-0.3-0.1-0.5
	c-0.1,0-0.2-0.1-0.2-0.1v-1.4c0.2-0.2,0.5-0.6,0.6-0.9c-0.7-0.4-1-0.7-2.1-0.7c-0.2,0.2-0.4,0.5-0.6,0.7h-0.1v0.2h-0.1v0.2h-0.1v0.1
	h-0.1v0.1h-2.7v-0.1h-1.2v0.1h-2.7v-0.1h-0.1v-0.1h-0.1v-0.2h-0.1v-0.2h-0.1c-0.2-0.2-0.4-0.5-0.6-0.7c-1.1,0-1.4,0.3-2.1,0.7
	c0.1,0.3,0.4,0.8,0.6,0.9v1.4c-0.1,0-0.2,0.1-0.2,0.1c0,0.2-0.1,0.3-0.1,0.5H7.6c-0.2,0.2-0.3,0.4-0.5,0.6c-0.1,0-0.2-0.1-0.4-0.1
	v-0.1c-0.2,0-0.4-0.1-0.6-0.1V24c-0.9-0.3-1,1-1.8,0.1c-0.7,0.1-0.4,0.1-0.7,0.5H3.6c-0.1,0.2-0.2,0.4-0.4,0.6H2.7V25H2.6V24H2.4
	c0-0.2-0.1-0.5-0.1-0.7H2.2C2,23,1.7,22.9,1.5,22.7c-0.4,0-0.8,0-1.1,0.1c-0.1,0.1-0.2,0.2-0.2,0.4c-0.1,0-0.1,0-0.2,0.1v6.4h28
	v-6.4C28,23.2,27.9,23.2,27.8,23.2z M7.7,14.5h0.1v0.3c0.2,0.2,0.4,0.3,0.7,0.5v0.3h0.1c0,0.1,0.1,0.3,0.1,0.4h0.7
	c0,0.2,0.1,0.4,0.1,0.6c0.1,0,0.2,0.1,0.3,0.1c0.1,0.4,0.2,0.8,0.3,1.2c0.5,0.4,1,0.9,1.4,1.3c0.4,0.4,0.6,0.8,1.2,1
	c0.4,0.1,2.2,0,2.3-0.1h0.5v-0.1c0.2-0.1,0.3-0.3,0.5-0.4v-0.3c0.6-0.5,1.1-1,1.7-1.5c0.2-0.2,0.5-1.2,0.5-1.5
	c0.6-0.1,0.7-0.3,1-0.5c0-0.1,0.1-0.2,0.1-0.3c-0.1-0.1-0.2,0-0.1-0.3c0.1-0.1,0.3-0.2,0.4-0.3v-0.6h0.1v-0.3h0.1v-0.4H20
	c0.4-1.1-0.6-1.6-0.3-2.7h0.1v-0.4H20V7.3h-0.1V6.9h-0.1V6.4c-0.1,0-0.2-0.1-0.3-0.1V5.9c-0.1,0-0.2-0.1-0.3-0.1V5.5
	c-0.1-0.1-0.3-0.2-0.4-0.3V5h-0.1c-0.1-0.1-0.2-0.3-0.3-0.4h-0.3V4.5H18V4.3h-0.3V4.2h-0.3c0-0.1-0.1-0.2-0.1-0.3h-0.3V3.8
	c-0.2,0-0.3-0.1-0.5-0.1V3.6h-0.8c-0.4-0.1-2.2-0.3-2.9-0.1v0.1H12c0,0.1-0.1,0.2-0.1,0.3h-0.8V4c-0.2,0-0.3,0.1-0.5,0.1
	c0,0.1-0.1,0.2-0.1,0.3c-0.2,0.1-0.3,0.3-0.5,0.4c0,0.1-0.1,0.2-0.1,0.3H9.4C9.3,5.2,9.1,5.3,9,5.5H8.9v0.3C8.6,5.9,8.4,6.1,8.2,6.3
	C8.1,6.7,8,7.1,8,7.5h0.1v0.1H8c0,0.2-0.1,0.3-0.1,0.5H7.7C7.5,8.8,7.8,10.5,7.8,11c0,0.8-0.1,1.2-0.3,1.7
	C7.6,13.3,7.6,13.9,7.7,14.5z"/>
</svg>
