<?xml version="1.0" encoding="utf-8"?>
<!-- Generator: Adobe Illustrator 15.0.0, SVG Export Plug-In . SVG Version: 6.00 Build 0)  -->
<!DOCTYPE svg PUBLIC "-//W3C//DTD SVG 1.1//EN" "http://www.w3.org/Graphics/SVG/1.1/DTD/svg11.dtd">
<svg version="1.1" xmlns="http://www.w3.org/2000/svg" xmlns:xlink="http://www.w3.org/1999/xlink" x="0px" y="0px"
	 width="702.293px" height="151.258px" viewBox="0 0 702.293 151.258" enable-background="new 0 0 702.293 151.258"
	 xml:space="preserve">
<g id="Эмблемма_1_" enable-background="new    ">
	<g id="Эмблемма">
		<g>
			<path fill-rule="evenodd" clip-rule="evenodd" fill="#FFFFFF" d="M75.629,0C33.869,0,0,33.868,0,75.629
				s33.869,75.629,75.629,75.629s75.629-33.868,75.629-75.629S117.389,0,75.629,0z M75.629,142.818
				c-37.157,0-67.189-30.143-67.189-67.189S38.472,8.439,75.629,8.439s67.189,30.143,67.189,67.189S112.786,142.818,75.629,142.818z
				 M75.629,14.688c-33.649,0-60.941,27.292-60.941,60.941s27.292,60.941,60.941,60.941s60.941-27.292,60.941-60.941
				S109.278,14.688,75.629,14.688z M110.593,109.607c-1.753,1.205-3.397,2.411-4.713,3.727c-1.425,1.314-2.521,2.631-3.507,4.056
				s-1.863,2.739-2.521,4.056c-4.932-7.345-11.619-12.276-19.949-14.907c1.973-0.877,2.959-2.082,2.959-3.617
				c0-0.438-0.109-0.877-0.219-1.425c-0.109-0.438-0.548-1.425-1.206-2.74s-1.644-3.398-3.069-6.028
				c-1.315-2.631-3.179-6.357-5.7-11.18h-1.644v16.879c0,4.713,1.206,7.344,3.727,8.111c-3.178,0.986-5.809,2.082-8.001,3.288
				c-2.192,1.206-3.945,2.412-5.371,3.727c-1.425,1.315-2.521,2.631-3.397,4.056c-0.877,1.425-1.535,2.74-1.973,4.056
				c-0.548-1.315-1.315-2.74-2.192-4.274c-0.877-1.535-1.863-3.069-3.179-4.494s-2.85-2.631-4.713-3.727
				c-1.863-1.097-4.165-1.863-6.795-2.411c2.521-0.768,4.713-1.974,6.467-3.727c1.754-1.645,2.63-3.289,2.63-4.823V51.296
				c0-2.411-2.521-4.713-7.672-6.796c2.631-0.767,4.933-1.753,6.905-3.178c1.973-1.315,3.617-2.74,4.932-4.275
				c1.425-1.425,2.521-2.959,3.508-4.274c0.986-1.425,1.753-2.631,2.411-3.617c0.548,1.315,1.206,2.631,1.754,4.056
				c0.548,1.315,1.425,2.631,2.63,3.946c1.096,1.314,2.63,2.521,4.604,3.727c1.973,1.205,4.604,2.411,8.001,3.616
				c-2.74,1.645-4.165,3.728-4.165,6.357v16.551h1.644l8.878-16.66c0.438-0.657,0.658-1.206,0.767-1.754
				c0.11-0.438,0.11-0.986,0.11-1.425c0-1.534-0.658-2.631-2.083-3.179c2.959-1.205,5.371-2.411,7.343-3.836
				c1.973-1.425,3.617-2.85,4.823-4.165c1.315-1.425,2.302-2.74,3.069-4.056s1.425-2.411,2.083-3.179
				c0.438,1.425,0.877,3.069,1.535,4.823s1.425,3.507,2.521,5.151c1.096,1.644,2.302,3.179,3.727,4.384
				c1.425,1.206,3.398,2.192,5.59,2.631c-4.056,1.096-7.015,2.959-8.988,5.699L88.015,72.121l17.318,27.731
				c1.863,2.959,5.699,5.261,11.399,6.576C114.43,107.415,112.457,108.401,110.593,109.607z"/>
		</g>
	</g>
</g>
<g id="Cardinal_1_" enable-background="new    ">
	<g id="Cardinal">
		<g>
			<path fill-rule="evenodd" clip-rule="evenodd" fill="#FFFFFF" d="M198.729,40.085l-13.637,12.689v20.18l-6.028,5.513l6.028,5.617
				v19.659l13.637,12.586h25.692l13.538-12.689V89.285h-10.573v9.361l-7.51,6.553h-16.7l-7.51-6.852V58.066l7.51-6.852h16.7
				l7.51,6.553v10.922h10.573V52.774l-13.538-12.689H198.729z M275.805,40.085l-11.957,33.598l-8.794,4.784l5.04,5.617
				l-11.463,32.245h11.067l6.818-19.035h29.646l6.818,19.035h11.067l-27.175-76.244H275.805z M270.469,86.164l10.87-31.205
				l10.87,31.205H270.469z M376.992,69.729v-15.29l-11.76-14.354h-34.98v32.869l-6.028,5.513l6.028,5.617v32.245h10.573V84.084
				h12.944l15.119,32.245h11.463l-15.119-32.245L376.992,69.729z M340.825,72.954V51.215h19.368l6.226,7.838v5.854l-6.226,8.048
				H340.825z M398.633,40.085v32.766l-6.028,5.513l6.028,5.617v32.245h37.82l13.564-12.69V52.774l-13.564-12.689H398.633z
				 M439.444,98.335l-7.634,6.761h-22.604V51.215h22.604l7.634,6.865V98.335z M480.749,40.085h-10.573v32.869l-6.028,5.513
				l6.028,5.617v32.245h10.573V84.084l6.028-5.617l-6.028-5.513V40.085z M558.912,40.085h-10.574v54.921l-29.645-54.921h-11.166
				v32.766l-6.028,5.616l6.028,5.514v32.349h10.573V59.848l30.237,56.481h10.574V83.98l6.027-5.514l-6.027-5.616V40.085z
				 M602.884,40.085l-11.957,33.598l-8.794,4.784l5.039,5.617l-11.463,32.245h11.067l6.819-19.035h29.645l6.818,19.035h11.067
				l-27.175-76.244H602.884z M597.548,86.164l10.87-31.205l10.869,31.205H597.548z M669.09,105.199V40.085h-10.573v32.766
				l-6.027,5.616l6.027,5.514v32.349h43.776v-11.13H669.09z"/>
		</g>
	</g>
</g>
</svg>
